<svg width="530" height="40" viewBox="0 0 530 40" fill="none" xmlns="http://www.w3.org/2000/svg">
<path d="M0.840915 11.0236C0.634374 10.6937 0.442587 10.2437 0.265552 9.67379C0.0885173 9.10386 0 8.50394 0 7.87402C0 6.70416 0.250799 5.86427 0.752398 5.35433C1.2835 4.84439 1.96213 4.58943 2.7883 4.58943H22.0851C22.2916 4.91938 22.4834 5.36933 22.6604 5.93926C22.8375 6.50919 22.926 7.10911 22.926 7.73903C22.926 8.90889 22.6604 9.74878 22.1293 10.2587C21.6277 10.7687 20.9639 11.0236 20.1377 11.0236H15.225V31.811C14.9004 31.901 14.3841 31.991 13.6759 32.081C12.9973 32.171 12.3187 32.216 11.64 32.216C10.9614 32.216 10.3565 32.156 9.82543 32.036C9.32383 31.946 8.89599 31.766 8.54193 31.4961C8.18786 31.2261 7.9223 30.8511 7.74527 30.3712C7.56823 29.8913 7.47972 29.2613 7.47972 28.4814V11.0236H0.840915Z" fill="#3077C6"/>
<path d="M31.8497 31.946C31.5546 32.036 31.0825 32.126 30.4334 32.216C29.8138 32.306 29.1646 32.351 28.486 32.351C27.8369 32.351 27.2468 32.306 26.7156 32.216C26.214 32.126 25.7862 31.946 25.4321 31.676C25.0781 31.4061 24.7978 31.0461 24.5912 30.5962C24.4142 30.1162 24.3257 29.5013 24.3257 28.7514V15.2531C24.3257 14.5632 24.4437 13.9783 24.6797 13.4983C24.9453 12.9884 25.3141 12.5384 25.7862 12.1485C26.2583 11.7585 26.8337 11.4136 27.5123 11.1136C28.2204 10.7837 28.9728 10.4987 29.7695 10.2587C30.5662 10.0187 31.3923 9.83877 32.248 9.71878C33.1036 9.5688 33.9593 9.49381 34.815 9.49381C36.2313 9.49381 37.3525 9.77878 38.1786 10.3487C39.0048 10.8886 39.4179 11.7885 39.4179 13.0484C39.4179 13.4683 39.3589 13.8883 39.2409 14.3082C39.1228 14.6982 38.9753 15.0581 38.7983 15.3881C38.1786 15.3881 37.5443 15.4181 36.8951 15.4781C36.246 15.5381 35.6116 15.628 34.992 15.748C34.3724 15.868 33.7823 16.003 33.2217 16.153C32.6906 16.273 32.2332 16.4229 31.8497 16.6029V31.946Z" fill="#3077C6"/>
<path d="M42.3448 4.04949C42.3448 2.90964 42.7137 1.94976 43.4513 1.16985C44.2185 0.389951 45.2217 0 46.4609 0C47.7001 0 48.6886 0.389951 49.4262 1.16985C50.1934 1.94976 50.577 2.90964 50.577 4.04949C50.577 5.18935 50.1934 6.14923 49.4262 6.92913C48.6886 7.70904 47.7001 8.09899 46.4609 8.09899C45.2217 8.09899 44.2185 7.70904 43.4513 6.92913C42.7137 6.14923 42.3448 5.18935 42.3448 4.04949ZM50.2229 31.946C49.8983 32.006 49.4115 32.081 48.7623 32.171C48.1427 32.291 47.5083 32.351 46.8592 32.351C46.2101 32.351 45.62 32.306 45.0889 32.216C44.5873 32.126 44.1594 31.946 43.8054 31.676C43.4513 31.4061 43.171 31.0461 42.9645 30.5962C42.7874 30.1162 42.6989 29.5013 42.6989 28.7514V10.4387C43.0235 10.3787 43.4956 10.3037 44.1152 10.2137C44.7643 10.0937 45.4134 10.0337 46.0626 10.0337C46.7117 10.0337 47.2871 10.0787 47.7887 10.1687C48.3198 10.2587 48.7623 10.4387 49.1164 10.7087C49.4705 10.9786 49.736 11.3536 49.9131 11.8335C50.1196 12.2835 50.2229 12.8834 50.2229 13.6333V31.946Z" fill="#3077C6"/>
<path d="M64.8825 9.44882C66.6529 9.44882 68.2905 9.68879 69.7952 10.1687C71.3296 10.6187 72.6426 11.3236 73.7343 12.2835C74.826 13.2433 75.6816 14.4582 76.3013 15.928C76.9209 17.3678 77.2307 19.0926 77.2307 21.1024C77.2307 23.0221 76.9652 24.7019 76.4341 26.1417C75.9029 27.5816 75.1505 28.7964 74.1769 29.7863C73.2032 30.7462 72.0229 31.4661 70.6362 31.946C69.2789 32.4259 67.7593 32.6659 66.0775 32.6659C64.8088 32.6659 63.6285 32.4709 62.5368 32.081V39.5501C62.2418 39.64 61.7697 39.73 61.1205 39.82C60.4714 39.94 59.8075 40 59.1289 40C58.4798 40 57.8897 39.955 57.3586 39.865C56.857 39.775 56.4291 39.5951 56.0751 39.3251C55.721 39.0551 55.4554 38.6802 55.2784 38.2002C55.1014 37.7503 55.0128 37.1504 55.0128 36.4004V14.8031C55.0128 13.9933 55.1751 13.3333 55.4997 12.8234C55.8538 12.3135 56.3259 11.8485 56.916 11.4286C57.8307 10.8286 58.9666 10.3487 60.3239 9.98875C61.6812 9.6288 63.2007 9.44882 64.8825 9.44882ZM64.9711 26.6367C68.0101 26.6367 69.5297 24.7919 69.5297 21.1024C69.5297 19.1826 69.1461 17.7578 68.379 16.8279C67.6413 15.898 66.5644 15.4331 65.1481 15.4331C64.5875 15.4331 64.0859 15.5081 63.6433 15.658C63.2007 15.778 62.8171 15.928 62.4926 16.108V26.0067C62.8466 26.1867 63.2302 26.3367 63.6433 26.4567C64.0564 26.5767 64.499 26.6367 64.9711 26.6367Z" fill="#3077C6"/>
<path d="M105.466 31.811C105.141 31.901 104.625 31.991 103.917 32.081C103.238 32.171 102.56 32.216 101.881 32.216C101.202 32.216 100.598 32.156 100.066 32.036C99.5649 31.946 99.137 31.766 98.783 31.4961C98.4289 31.2261 98.1633 30.8511 97.9863 30.3712C97.8093 29.8913 97.7207 29.2613 97.7207 28.4814V21.4623H89.2231V31.811C88.8985 31.901 88.3822 31.991 87.674 32.081C86.9954 32.171 86.3168 32.216 85.6381 32.216C84.9595 32.216 84.3546 32.156 83.8235 32.036C83.3219 31.946 82.8941 31.766 82.54 31.4961C82.1859 31.2261 81.9204 30.8511 81.7434 30.3712C81.5663 29.8913 81.4778 29.2613 81.4778 28.4814V4.72441C81.8024 4.66442 82.3187 4.58943 83.0269 4.49944C83.735 4.37945 84.4136 4.31946 85.0628 4.31946C85.7414 4.31946 86.3315 4.37945 86.8331 4.49944C87.3642 4.58943 87.8068 4.7694 88.1609 5.03937C88.5149 5.30934 88.7805 5.68429 88.9575 6.16423C89.1346 6.64417 89.2231 7.27409 89.2231 8.05399V15.2531H97.7207V4.72441C98.0453 4.66442 98.5617 4.58943 99.2698 4.49944C99.9779 4.37945 100.657 4.31946 101.306 4.31946C101.984 4.31946 102.574 4.37945 103.076 4.49944C103.607 4.58943 104.05 4.7694 104.404 5.03937C104.758 5.30934 105.023 5.68429 105.2 6.16423C105.377 6.64417 105.466 7.27409 105.466 8.05399V31.811Z" fill="#3077C6"/>
<path d="M132.901 21.0574C132.901 22.9171 132.621 24.5819 132.06 26.0517C131.499 27.4916 130.703 28.7064 129.67 29.6963C128.667 30.6862 127.457 31.4361 126.041 31.946C124.624 32.4559 123.046 32.7109 121.305 32.7109C119.564 32.7109 117.986 32.4409 116.569 31.901C115.153 31.3611 113.929 30.5962 112.896 29.6063C111.893 28.5864 111.111 27.3566 110.55 25.9168C109.99 24.4769 109.709 22.8571 109.709 21.0574C109.709 19.2876 109.99 17.6828 110.55 16.243C111.111 14.8031 111.893 13.5883 112.896 12.5984C113.929 11.5786 115.153 10.7986 116.569 10.2587C117.986 9.71878 119.564 9.44882 121.305 9.44882C123.046 9.44882 124.624 9.73378 126.041 10.3037C127.457 10.8436 128.667 11.6235 129.67 12.6434C130.703 13.6333 131.499 14.8481 132.06 16.288C132.621 17.7278 132.901 19.3176 132.901 21.0574ZM117.41 21.0574C117.41 22.8871 117.75 24.297 118.428 25.2868C119.136 26.2467 120.11 26.7267 121.349 26.7267C122.589 26.7267 123.533 26.2317 124.182 25.2418C124.861 24.252 125.2 22.8571 125.2 21.0574C125.2 19.2576 124.861 17.8778 124.182 16.9179C123.503 15.928 122.544 15.4331 121.305 15.4331C120.066 15.4331 119.107 15.928 118.428 16.9179C117.75 17.8778 117.41 19.2576 117.41 21.0574Z" fill="#3077C6"/>
<path d="M136.572 10.4387C136.867 10.3487 137.324 10.2587 137.944 10.1687C138.593 10.0787 139.257 10.0337 139.935 10.0337C140.584 10.0337 141.16 10.0787 141.661 10.1687C142.192 10.2587 142.635 10.4387 142.989 10.7087C143.343 10.9786 143.609 11.3536 143.786 11.8335C143.992 12.2835 144.096 12.8834 144.096 13.6333V23.3071C144.096 24.5369 144.391 25.4218 144.981 25.9618C145.571 26.4717 146.427 26.7267 147.548 26.7267C148.226 26.7267 148.772 26.6667 149.185 26.5467C149.628 26.4267 149.967 26.3067 150.203 26.1867V10.4387C150.498 10.3487 150.956 10.2587 151.575 10.1687C152.224 10.0787 152.888 10.0337 153.567 10.0337C154.216 10.0337 154.791 10.0787 155.293 10.1687C155.824 10.2587 156.267 10.4387 156.621 10.7087C156.975 10.9786 157.24 11.3536 157.417 11.8335C157.624 12.2835 157.727 12.8834 157.727 13.6333V27.3116C157.727 28.8114 157.108 29.9363 155.868 30.6862C154.836 31.3461 153.596 31.841 152.151 32.171C150.734 32.5309 149.185 32.7109 147.503 32.7109C145.91 32.7109 144.435 32.5309 143.078 32.171C141.75 31.811 140.599 31.2561 139.625 30.5062C138.652 29.7563 137.899 28.7964 137.368 27.6265C136.837 26.4267 136.572 24.9869 136.572 23.3071V10.4387Z" fill="#3077C6"/>
<path d="M180.478 25.4668C180.478 27.7465 179.637 29.5313 177.955 30.8211C176.273 32.111 173.794 32.7559 170.519 32.7559C169.28 32.7559 168.129 32.6659 167.067 32.4859C166.005 32.306 165.09 32.036 164.323 31.676C163.586 31.2861 162.995 30.8061 162.553 30.2362C162.14 29.6663 161.933 28.9914 161.933 28.2115C161.933 27.4916 162.081 26.8916 162.376 26.4117C162.671 25.9018 163.025 25.4818 163.438 25.1519C164.294 25.6318 165.267 26.0667 166.359 26.4567C167.48 26.8166 168.764 26.9966 170.21 26.9966C171.124 26.9966 171.818 26.8616 172.29 26.5917C172.791 26.3217 173.042 25.9618 173.042 25.5118C173.042 25.0919 172.865 24.7619 172.511 24.5219C172.157 24.282 171.567 24.087 170.741 23.937L169.413 23.667C166.846 23.1571 164.928 22.3622 163.659 21.2823C162.42 20.1725 161.8 18.5977 161.8 16.5579C161.8 15.4481 162.036 14.4432 162.509 13.5433C162.981 12.6434 163.645 11.8935 164.5 11.2936C165.356 10.6937 166.374 10.2287 167.554 9.89876C168.764 9.5688 170.092 9.40382 171.537 9.40382C172.629 9.40382 173.647 9.49381 174.591 9.67379C175.565 9.82377 176.406 10.0637 177.114 10.3937C177.822 10.7237 178.383 11.1586 178.796 11.6985C179.209 12.2085 179.415 12.8234 179.415 13.5433C179.415 14.2332 179.283 14.8331 179.017 15.3431C178.781 15.823 178.471 16.228 178.088 16.5579C177.852 16.4079 177.497 16.258 177.025 16.108C176.553 15.928 176.037 15.778 175.476 15.658C174.916 15.5081 174.34 15.3881 173.75 15.2981C173.19 15.2081 172.673 15.1631 172.201 15.1631C171.227 15.1631 170.475 15.2831 169.944 15.5231C169.413 15.733 169.147 16.078 169.147 16.5579C169.147 16.8879 169.295 17.1579 169.59 17.3678C169.885 17.5778 170.446 17.7728 171.272 17.9528L172.644 18.2677C175.476 18.9276 177.483 19.8425 178.663 21.0124C179.873 22.1522 180.478 23.637 180.478 25.4668Z" fill="#3077C6"/>
<path d="M195.706 32.7109C193.965 32.7109 192.342 32.4709 190.837 31.991C189.362 31.4811 188.064 30.7312 186.942 29.7413C185.851 28.7514 184.98 27.5066 184.331 26.0067C183.712 24.5069 183.402 22.7522 183.402 20.7424C183.402 18.7627 183.712 17.0679 184.331 15.658C184.98 14.2182 185.821 13.0484 186.854 12.1485C187.887 11.2186 189.067 10.5437 190.395 10.1237C191.722 9.67379 193.08 9.44882 194.466 9.44882C196.03 9.44882 197.447 9.68879 198.715 10.1687C200.014 10.6487 201.12 11.3086 202.035 12.1485C202.979 12.9884 203.702 13.9933 204.203 15.1631C204.734 16.333 205 17.6078 205 18.9876C205 20.0075 204.72 20.7874 204.159 21.3273C203.598 21.8673 202.817 22.2122 201.813 22.3622L190.881 24.027C191.206 25.0169 191.87 25.7668 192.873 26.2767C193.876 26.7567 195.027 26.9966 196.325 26.9966C197.535 26.9966 198.671 26.8466 199.733 26.5467C200.825 26.2167 201.71 25.8418 202.389 25.4218C202.861 25.7218 203.259 26.1417 203.584 26.6817C203.908 27.2216 204.071 27.7915 204.071 28.3915C204.071 29.7413 203.451 30.7462 202.212 31.4061C201.268 31.916 200.205 32.261 199.025 32.4409C197.845 32.6209 196.738 32.7109 195.706 32.7109ZM194.466 15.0281C193.758 15.0281 193.139 15.1481 192.608 15.3881C192.106 15.628 191.693 15.943 191.368 16.333C191.044 16.6929 190.793 17.1129 190.616 17.5928C190.468 18.0427 190.38 18.5077 190.35 18.9876L197.919 17.7278C197.83 17.1279 197.506 16.5279 196.945 15.928C196.384 15.3281 195.558 15.0281 194.466 15.0281Z" fill="#3077C6"/>
<path d="M230.61 15.6101V9.38992H224.39L220 5L215.61 9.38992H209.39V15.6101L205 20L209.39 24.3899V30.6101H215.61L220 35L224.39 30.6101H230.61V24.3899L235 20L230.61 15.6101ZM220 27.9576C218.82 27.9576 217.692 27.6923 216.684 27.2281C219.416 25.9682 221.326 23.2096 221.326 20C221.326 16.7905 219.416 14.0318 216.684 12.7719C217.692 12.3077 218.82 12.0424 220 12.0424C224.39 12.0424 227.958 15.6101 227.958 20C227.958 24.3899 224.39 27.9576 220 27.9576Z" fill="white"/>
<path d="M255 0C243.96 0 235 8.96 235 20C235 31.04 243.96 40 255 40C266.04 40 275 31.04 275 20C275 8.96 266.04 0 255 0ZM255 6C258.32 6 261 8.68 261 12C261 15.32 258.32 18 255 18C251.68 18 249 15.32 249 12C249 8.68 251.68 6 255 6ZM255 34.4C250 34.4 245.58 31.84 243 27.96C243.06 23.98 251 21.8 255 21.8C258.98 21.8 266.94 23.98 267 27.96C264.42 31.84 260 34.4 255 34.4Z" fill="white"/>
<path d="M520.135 0.00013H419.535C419.168 0.00013 418.806 0.00013 418.44 0.00212999C418.134 0.00412999 417.83 0.00993997 417.521 0.01483C416.85 0.0227317 416.18 0.081806 415.517 0.191539C414.856 0.303662 414.215 0.515044 413.616 0.818537C413.018 1.1246 412.472 1.52229 411.998 1.99719C411.52 2.47076 411.122 3.01814 410.819 3.61828C410.515 4.21723 410.305 4.85905 410.194 5.52159C410.083 6.1833 410.023 6.85263 410.015 7.52359C410.006 7.83018 410.005 8.1378 410 8.44444V31.5586C410.005 31.8691 410.006 32.1699 410.015 32.4805C410.023 33.1514 410.083 33.8207 410.194 34.4824C410.304 35.1453 410.515 35.7875 410.819 36.3867C411.122 36.9849 411.52 37.5301 411.998 38.001C412.471 38.478 413.017 38.876 413.616 39.1797C414.215 39.484 414.855 39.6967 415.517 39.8105C416.18 39.9194 416.85 39.9785 417.521 39.9873C417.83 39.9941 418.134 39.998 418.44 39.998C418.806 40 419.168 40 419.535 40H520.135C520.494 40 520.859 40 521.219 39.998C521.523 39.998 521.836 39.9941 522.141 39.9873C522.811 39.9789 523.479 39.9198 524.141 39.8105C524.804 39.6958 525.448 39.4833 526.049 39.1797C526.647 38.8758 527.193 38.4779 527.666 38.001C528.142 37.5282 528.541 36.9835 528.848 36.3867C529.15 35.7871 529.358 35.145 529.467 34.4824C529.578 33.8207 529.64 33.1515 529.652 32.4805C529.656 32.1699 529.656 31.8691 529.656 31.5586C529.664 31.1953 529.664 30.834 529.664 30.4648V9.53623C529.664 9.17002 529.664 8.80674 529.656 8.44444C529.656 8.1378 529.656 7.83018 529.652 7.52355C529.64 6.85253 529.578 6.18335 529.467 5.52155C529.358 4.8594 529.149 4.21762 528.848 3.61824C528.23 2.41532 527.252 1.43615 526.049 0.818447C525.448 0.515696 524.804 0.304369 524.141 0.191449C523.48 0.0812325 522.811 0.0221377 522.141 0.01469C521.836 0.00980997 521.523 0.00394999 521.219 0.00199999C520.859 0 520.494 0 520.135 0V0.00013Z" fill="#A6A6A6"/>
<path d="M418.445 39.1252C418.14 39.1252 417.843 39.1213 417.541 39.1145C416.914 39.1063 416.29 39.0518 415.671 38.9514C415.095 38.8521 414.537 38.6674 414.015 38.4035C413.497 38.1417 413.026 37.7984 412.618 37.3869C412.204 36.9801 411.859 36.5084 411.597 35.9904C411.333 35.469 411.149 34.9101 411.054 34.3332C410.951 33.7133 410.896 33.0865 410.888 32.4582C410.881 32.2473 410.873 31.5451 410.873 31.5451V8.44457C410.873 8.44457 410.882 7.75316 410.888 7.55003C410.895 6.92271 410.951 6.29689 411.053 5.67796C411.149 5.09948 411.332 4.53898 411.597 4.01587C411.857 3.49818 412.2 3.0261 412.612 2.61792C413.023 2.20586 413.496 1.86085 414.014 1.59545C414.535 1.33234 415.092 1.14898 415.667 1.05151C416.288 0.95008 416.915 0.89524 417.543 0.887454L418.445 0.875244H521.214L522.127 0.887944C522.75 0.895343 523.371 0.949694 523.985 1.05053C524.566 1.14922 525.13 1.33386 525.656 1.59838C526.694 2.13323 527.539 2.9794 528.071 4.01831C528.332 4.53781 528.512 5.09374 528.606 5.66722C528.71 6.29122 528.768 6.92197 528.78 7.55443C528.783 7.83763 528.783 8.14183 528.783 8.44457C528.791 8.81957 528.791 9.1765 528.791 9.53635V30.465C528.791 30.8283 528.791 31.1828 528.783 31.5402C528.783 31.8654 528.783 32.1633 528.779 32.4699C528.768 33.091 528.71 33.7105 528.608 34.3234C528.515 34.9044 528.333 35.4677 528.068 35.9934C527.805 36.5058 527.462 36.9734 527.053 37.3791C526.644 37.7928 526.172 38.1381 525.653 38.4016C525.128 38.6676 524.566 38.8529 523.985 38.9514C523.367 39.0523 522.742 39.1068 522.116 39.1145C521.823 39.1213 521.517 39.1252 521.219 39.1252L520.135 39.1272L418.445 39.1252Z" fill="black"/>
<path d="M434.769 20.3006C434.78 19.4659 435.001 18.6476 435.413 17.9216C435.825 17.1956 436.414 16.5857 437.125 16.1485C436.674 15.5034 436.078 14.9724 435.385 14.5979C434.692 14.2233 433.921 14.0155 433.134 13.9908C431.455 13.8146 429.827 14.9957 428.971 14.9957C428.099 14.9957 426.782 14.0083 425.363 14.0375C424.445 14.0672 423.551 14.334 422.767 14.8121C421.983 15.2901 421.336 15.9631 420.89 16.7654C418.956 20.1138 420.399 25.0349 422.251 27.7415C423.178 29.0669 424.261 30.5474 425.679 30.4949C427.066 30.4373 427.584 29.6104 429.258 29.6104C430.917 29.6104 431.403 30.4949 432.849 30.4615C434.338 30.4373 435.275 29.1302 436.17 27.7923C436.836 26.848 437.348 25.8042 437.688 24.6998C436.823 24.3341 436.085 23.7219 435.566 22.9396C435.047 22.1573 434.77 21.2395 434.769 20.3006V20.3006Z" fill="white"/>
<path d="M432.037 12.2111C432.849 11.2369 433.249 9.98468 433.152 8.72046C431.912 8.85068 430.767 9.44323 429.944 10.3801C429.542 10.8377 429.234 11.3702 429.038 11.9469C428.842 12.5237 428.761 13.1335 428.8 13.7414C429.421 13.7478 430.034 13.6134 430.595 13.3483C431.155 13.0832 431.649 12.6944 432.037 12.2111Z" fill="white"/>
<path d="M452.302 27.1397H447.569L446.432 30.4962H444.427L448.911 18.0781H450.994L455.477 30.4962H453.438L452.302 27.1397ZM448.059 25.5909H451.811L449.961 20.1436H449.91L448.059 25.5909Z" fill="white"/>
<path d="M465.16 25.9697C465.16 28.7832 463.654 30.5908 461.381 30.5908C460.806 30.6209 460.233 30.4883 459.729 30.2082C459.226 29.928 458.811 29.5117 458.533 29.0068H458.49V33.4912H456.631V21.4423H458.43V22.9482H458.464C458.755 22.4457 459.177 22.0316 459.685 21.7497C460.192 21.4679 460.767 21.3289 461.347 21.3476C463.645 21.3476 465.16 23.164 465.16 25.9697ZM463.25 25.9697C463.25 24.1367 462.302 22.9316 460.857 22.9316C459.437 22.9316 458.482 24.1621 458.482 25.9697C458.482 27.7939 459.437 29.0156 460.857 29.0156C462.302 29.0156 463.25 27.8193 463.25 25.9697Z" fill="white"/>
<path d="M475.125 25.9697C475.125 28.7832 473.619 30.5908 471.346 30.5908C470.771 30.6209 470.198 30.4883 469.694 30.2082C469.19 29.928 468.776 29.5117 468.498 29.0068H468.455V33.4912H466.596V21.4423H468.395V22.9482H468.429C468.72 22.4457 469.142 22.0315 469.649 21.7497C470.157 21.4679 470.732 21.3289 471.312 21.3476C473.61 21.3476 475.125 23.164 475.125 25.9697ZM473.214 25.9697C473.214 24.1367 472.267 22.9316 470.822 22.9316C469.402 22.9316 468.447 24.1621 468.447 25.9697C468.447 27.7939 469.402 29.0156 470.822 29.0156C472.267 29.0156 473.214 27.8193 473.214 25.9697H473.214Z" fill="white"/>
<path d="M481.71 27.0362C481.848 28.2676 483.044 29.0761 484.679 29.0761C486.246 29.0761 487.373 28.2676 487.373 27.1572C487.373 26.1933 486.693 25.6162 485.083 25.2207L483.474 24.833C481.194 24.2822 480.135 23.2158 480.135 21.4853C480.135 19.3428 482.002 17.8711 484.654 17.8711C487.278 17.8711 489.077 19.3428 489.137 21.4853H487.261C487.149 20.2461 486.124 19.498 484.627 19.498C483.13 19.498 482.106 20.2549 482.106 21.3564C482.106 22.2344 482.76 22.751 484.361 23.1464L485.729 23.4824C488.277 24.0849 489.335 25.1084 489.335 26.9247C489.335 29.248 487.485 30.703 484.541 30.703C481.788 30.703 479.928 29.2822 479.808 27.0361L481.71 27.0362Z" fill="white"/>
<path d="M493.346 19.3V21.4426H495.068V22.9143H493.346V27.9055C493.346 28.6809 493.691 29.0422 494.448 29.0422C494.652 29.0387 494.856 29.0243 495.059 28.9992V30.4621C494.719 30.5257 494.373 30.5545 494.027 30.548C492.194 30.548 491.479 29.8596 491.479 28.1037V22.9143H490.163V21.4426H491.479V19.3H493.346Z" fill="white"/>
<path d="M496.065 25.97C496.065 23.1213 497.743 21.3313 500.359 21.3313C502.984 21.3313 504.654 23.1213 504.654 25.97C504.654 28.8264 502.993 30.6086 500.359 30.6086C497.726 30.6086 496.065 28.8264 496.065 25.97ZM502.76 25.97C502.76 24.0159 501.865 22.8625 500.359 22.8625C498.853 22.8625 497.959 24.0247 497.959 25.97C497.959 27.9319 498.853 29.0764 500.359 29.0764C501.865 29.0764 502.76 27.9319 502.76 25.97H502.76Z" fill="white"/>
<path d="M506.186 21.4425H507.959V22.9835H508.002C508.121 22.5022 508.403 22.0769 508.8 21.779C509.197 21.4811 509.684 21.3288 510.179 21.3478C510.393 21.347 510.607 21.3703 510.816 21.4171V23.1554C510.546 23.0728 510.264 23.0348 509.981 23.0431C509.711 23.0321 509.442 23.0797 509.192 23.1826C508.942 23.2855 508.718 23.4413 508.534 23.6391C508.35 23.837 508.211 24.0724 508.126 24.3291C508.042 24.5857 508.014 24.8576 508.044 25.1261V30.4963H506.186L506.186 21.4425Z" fill="white"/>
<path d="M519.384 27.8371C519.134 29.4806 517.534 30.6085 515.486 30.6085C512.852 30.6085 511.217 28.8439 511.217 26.0129C511.217 23.1731 512.861 21.3313 515.408 21.3313C517.913 21.3313 519.488 23.052 519.488 25.7971V26.4338H513.093V26.5461C513.064 26.8793 513.105 27.2149 513.216 27.5308C513.326 27.8466 513.502 28.1354 513.732 28.3779C513.963 28.6205 514.242 28.8112 514.552 28.9376C514.861 29.0639 515.195 29.1228 515.529 29.1105C515.968 29.1517 516.409 29.0499 516.785 28.8205C517.162 28.5911 517.455 28.2462 517.62 27.8371L519.384 27.8371ZM513.102 25.135H517.628C517.645 24.8354 517.6 24.5356 517.495 24.2544C517.39 23.9732 517.229 23.7166 517.02 23.5009C516.812 23.2851 516.561 23.1148 516.283 23.0005C516.006 22.8863 515.708 22.8307 515.408 22.8371C515.105 22.8353 514.805 22.8935 514.525 23.0082C514.245 23.123 513.99 23.292 513.776 23.5057C513.562 23.7193 513.392 23.9733 513.276 24.2529C513.16 24.5326 513.101 24.8323 513.102 25.135V25.135Z" fill="white"/>
<path d="M447.826 8.73114C448.216 8.70318 448.607 8.76204 448.971 8.90347C449.335 9.0449 449.663 9.26538 449.932 9.549C450.2 9.83262 450.403 10.1723 450.524 10.5436C450.645 10.9148 450.683 11.3084 450.634 11.6959C450.634 13.6022 449.604 14.6979 447.826 14.6979H445.671V8.73114H447.826ZM446.598 13.8541H447.723C448.001 13.8707 448.28 13.8251 448.538 13.7205C448.797 13.6158 449.029 13.4549 449.217 13.2493C449.406 13.0438 449.546 12.7988 449.628 12.5322C449.71 12.2655 449.731 11.984 449.69 11.7081C449.728 11.4333 449.705 11.1535 449.621 10.8888C449.538 10.6242 449.398 10.3812 449.21 10.1773C449.022 9.97333 448.791 9.81352 448.534 9.70928C448.277 9.60505 448 9.55897 447.723 9.57434H446.598V13.8541Z" fill="white"/>
<path d="M451.681 12.4443C451.652 12.1483 451.686 11.8498 451.78 11.5677C451.874 11.2856 452.026 11.0263 452.226 10.8063C452.426 10.5863 452.669 10.4106 452.941 10.2903C453.213 10.17 453.507 10.1079 453.804 10.1079C454.101 10.1079 454.395 10.17 454.667 10.2903C454.939 10.4106 455.183 10.5863 455.383 10.8063C455.583 11.0263 455.735 11.2856 455.828 11.5677C455.922 11.8498 455.956 12.1483 455.928 12.4443C455.957 12.7405 455.923 13.0394 455.83 13.322C455.736 13.6045 455.584 13.8643 455.384 14.0847C455.184 14.3051 454.94 14.4813 454.668 14.6018C454.396 14.7223 454.102 14.7846 453.804 14.7846C453.507 14.7846 453.212 14.7223 452.94 14.6018C452.668 14.4813 452.424 14.3051 452.224 14.0847C452.024 13.8643 451.872 13.6045 451.779 13.322C451.685 13.0394 451.652 12.7405 451.681 12.4443V12.4443ZM455.014 12.4443C455.014 11.4682 454.575 10.8974 453.806 10.8974C453.033 10.8974 452.599 11.4682 452.599 12.4443C452.599 13.4281 453.033 13.9945 453.806 13.9945C454.575 13.9945 455.014 13.4242 455.014 12.4443H455.014Z" fill="white"/>
<path d="M461.573 14.6978H460.651L459.721 11.3813H459.65L458.724 14.6978H457.811L456.569 10.1948H457.471L458.277 13.6308H458.344L459.27 10.1948H460.122L461.048 13.6308H461.118L461.921 10.1948H462.81L461.573 14.6978Z" fill="white"/>
<path d="M463.854 10.1949H464.709V10.9102H464.775C464.888 10.6533 465.078 10.4379 465.319 10.2941C465.56 10.1503 465.84 10.0852 466.119 10.1079C466.338 10.0915 466.558 10.1245 466.763 10.2046C466.967 10.2847 467.151 10.4098 467.301 10.5707C467.451 10.7315 467.562 10.924 467.628 11.1338C467.693 11.3436 467.71 11.5654 467.678 11.7828V14.6979H466.789V12.006C466.789 11.2823 466.475 10.9224 465.817 10.9224C465.669 10.9155 465.52 10.9408 465.382 10.9966C465.244 11.0525 465.12 11.1375 465.018 11.2459C464.915 11.3543 464.838 11.4835 464.79 11.6246C464.743 11.7657 464.726 11.9155 464.742 12.0636V14.6979H463.854L463.854 10.1949Z" fill="white"/>
<path d="M469.094 8.43701H469.982V14.6978H469.094V8.43701Z" fill="white"/>
<path d="M471.218 12.4442C471.189 12.1482 471.223 11.8496 471.317 11.5676C471.411 11.2855 471.563 11.0261 471.763 10.8061C471.963 10.5861 472.207 10.4104 472.478 10.2901C472.75 10.1698 473.044 10.1077 473.342 10.1077C473.639 10.1077 473.933 10.1698 474.205 10.2901C474.477 10.4104 474.72 10.5861 474.92 10.8061C475.12 11.0261 475.272 11.2855 475.366 11.5676C475.46 11.8496 475.494 12.1482 475.465 12.4442C475.494 12.7404 475.461 13.0394 475.367 13.3219C475.273 13.6045 475.122 13.8643 474.922 14.0847C474.722 14.3051 474.478 14.4812 474.206 14.6018C473.934 14.7223 473.639 14.7846 473.342 14.7846C473.044 14.7846 472.75 14.7223 472.477 14.6018C472.205 14.4812 471.961 14.3051 471.761 14.0847C471.561 13.8643 471.41 13.6045 471.316 13.3219C471.222 13.0394 471.189 12.7404 471.218 12.4442V12.4442ZM474.551 12.4442C474.551 11.4681 474.112 10.8973 473.343 10.8973C472.57 10.8973 472.136 11.4681 472.136 12.4442C472.136 13.4281 472.57 13.9945 473.343 13.9945C474.112 13.9945 474.551 13.4242 474.551 12.4442H474.551Z" fill="white"/>
<path d="M476.401 13.4242C476.401 12.6136 477.004 12.1463 478.076 12.0799L479.295 12.0096V11.6209C479.295 11.1453 478.981 10.8767 478.374 10.8767C477.877 10.8767 477.534 11.0589 477.435 11.3772H476.575C476.666 10.6038 477.393 10.1077 478.415 10.1077C479.543 10.1077 480.18 10.6697 480.18 11.6209V14.6976H479.325V14.0648H479.254C479.112 14.2918 478.911 14.4768 478.674 14.6011C478.436 14.7253 478.17 14.7842 477.902 14.7718C477.713 14.7915 477.522 14.7713 477.341 14.7126C477.16 14.6539 476.994 14.558 476.852 14.431C476.711 14.304 476.598 14.1488 476.52 13.9754C476.442 13.802 476.402 13.6142 476.401 13.4242V13.4242ZM479.295 13.0394V12.6629L478.196 12.7332C477.576 12.7747 477.294 12.9857 477.294 13.3826C477.294 13.7879 477.646 14.0238 478.129 14.0238C478.271 14.0381 478.414 14.0238 478.55 13.9817C478.686 13.9396 478.812 13.8706 478.921 13.7788C479.03 13.6869 479.119 13.5741 479.183 13.4471C479.248 13.3201 479.286 13.1814 479.295 13.0394V13.0394Z" fill="white"/>
<path d="M481.348 12.4444C481.348 11.0215 482.08 10.1201 483.217 10.1201C483.499 10.1072 483.778 10.1746 484.023 10.3145C484.267 10.4544 484.467 10.661 484.598 10.9101H484.665V8.43701H485.553V14.6978H484.702V13.9863H484.631C484.49 14.2338 484.283 14.4379 484.034 14.5764C483.785 14.7148 483.502 14.7825 483.217 14.772C482.072 14.772 481.348 13.8706 481.348 12.4444ZM482.266 12.4444C482.266 13.3995 482.716 13.9742 483.469 13.9742C484.218 13.9742 484.681 13.3912 484.681 12.4483C484.681 11.5098 484.213 10.9185 483.469 10.9185C482.721 10.9185 482.266 11.4971 482.266 12.4444H482.266Z" fill="white"/>
<path d="M489.23 12.4443C489.202 12.1483 489.236 11.8498 489.329 11.5677C489.423 11.2856 489.575 11.0263 489.775 10.8063C489.975 10.5863 490.219 10.4106 490.49 10.2903C490.762 10.17 491.056 10.1079 491.354 10.1079C491.651 10.1079 491.945 10.17 492.217 10.2903C492.489 10.4106 492.732 10.5863 492.932 10.8063C493.132 11.0263 493.284 11.2856 493.378 11.5677C493.472 11.8498 493.505 12.1483 493.477 12.4443C493.506 12.7405 493.472 13.0394 493.379 13.322C493.285 13.6045 493.134 13.8643 492.934 14.0847C492.734 14.3051 492.49 14.4813 492.218 14.6018C491.945 14.7223 491.651 14.7846 491.354 14.7846C491.056 14.7846 490.762 14.7223 490.489 14.6018C490.217 14.4813 489.973 14.3051 489.773 14.0847C489.573 13.8643 489.422 13.6045 489.328 13.322C489.235 13.0394 489.201 12.7405 489.23 12.4443V12.4443ZM492.563 12.4443C492.563 11.4682 492.125 10.8974 491.355 10.8974C490.583 10.8974 490.148 11.4682 490.148 12.4443C490.148 13.4281 490.583 13.9945 491.355 13.9945C492.125 13.9945 492.563 13.4242 492.563 12.4443Z" fill="white"/>
<path d="M494.669 10.1949H495.525V10.9102H495.591C495.704 10.6533 495.894 10.4379 496.135 10.2941C496.376 10.1503 496.655 10.0852 496.935 10.1079C497.154 10.0915 497.374 10.1245 497.579 10.2046C497.783 10.2847 497.967 10.4098 498.117 10.5707C498.267 10.7315 498.378 10.924 498.443 11.1338C498.509 11.3436 498.526 11.5654 498.494 11.7828V14.6979H497.605V12.006C497.605 11.2823 497.291 10.9224 496.633 10.9224C496.485 10.9155 496.336 10.9408 496.198 10.9966C496.06 11.0525 495.936 11.1375 495.833 11.2459C495.731 11.3543 495.654 11.4835 495.606 11.6246C495.559 11.7657 495.542 11.9155 495.558 12.0636V14.6979H494.669V10.1949Z" fill="white"/>
<path d="M503.515 9.07373V10.2153H504.491V10.9639H503.515V13.2793C503.515 13.751 503.709 13.9575 504.152 13.9575C504.265 13.9572 504.378 13.9503 504.491 13.937V14.6772C504.331 14.7058 504.169 14.721 504.007 14.7227C503.019 14.7227 502.625 14.375 502.625 13.5068V10.9638H501.911V10.2153H502.625V9.07373H503.515Z" fill="white"/>
<path d="M505.705 8.43701H506.585V10.9185H506.656C506.774 10.6591 506.969 10.4426 507.215 10.2982C507.461 10.1539 507.745 10.0888 508.029 10.1118C508.247 10.1 508.465 10.1364 508.667 10.2184C508.869 10.3004 509.051 10.4261 509.199 10.5864C509.347 10.7468 509.458 10.9378 509.524 11.146C509.59 11.3541 509.609 11.5742 509.58 11.7905V14.6978H508.69V12.0098C508.69 11.2905 508.355 10.9263 507.727 10.9263C507.574 10.9137 507.421 10.9347 507.277 10.9878C507.133 11.0408 507.003 11.1247 506.895 11.2334C506.787 11.3421 506.704 11.4732 506.652 11.6173C506.6 11.7614 506.58 11.9152 506.593 12.0679V14.6977H505.705L505.705 8.43701Z" fill="white"/>
<path d="M514.761 13.4818C514.641 13.8934 514.379 14.2494 514.022 14.4875C513.666 14.7257 513.236 14.8308 512.81 14.7846C512.513 14.7924 512.219 14.7356 511.946 14.618C511.674 14.5005 511.43 14.3251 511.232 14.104C511.034 13.8828 510.887 13.6212 510.8 13.3374C510.713 13.0536 510.689 12.7543 510.73 12.4603C510.691 12.1654 510.715 11.8655 510.801 11.5808C510.888 11.2961 511.034 11.0334 511.231 10.8103C511.428 10.5872 511.671 10.409 511.942 10.2878C512.214 10.1666 512.509 10.1052 512.806 10.1077C514.059 10.1077 514.815 10.9638 514.815 12.3778V12.6879H511.635V12.7377C511.621 12.9029 511.642 13.0693 511.696 13.226C511.75 13.3828 511.837 13.5265 511.95 13.6479C512.062 13.7694 512.2 13.8659 512.352 13.9313C512.504 13.9967 512.669 14.0295 512.834 14.0277C513.047 14.0532 513.262 14.0149 513.453 13.9177C513.644 13.8205 513.801 13.6688 513.906 13.4818L514.761 13.4818ZM511.635 12.0306H513.91C513.921 11.8795 513.9 11.7277 513.849 11.585C513.798 11.4422 513.718 11.3118 513.614 11.2019C513.509 11.092 513.383 11.0052 513.243 10.9471C513.103 10.8889 512.953 10.8606 512.801 10.8641C512.648 10.8622 512.495 10.891 512.353 10.949C512.21 11.0069 512.081 11.0928 511.972 11.2015C511.864 11.3102 511.778 11.4396 511.72 11.582C511.662 11.7244 511.633 11.8769 511.635 12.0306H511.635Z" fill="white"/>
<path d="M405 39.9999H280C277.25 39.9999 275 37.75 275 35V4.99999C275 2.25 277.25 0 280 0H405C407.75 0 410 2.25 410 4.99999V35C410 37.75 407.75 39.9999 405 39.9999Z" fill="black"/>
<path d="M405 0.799999C407.32 0.799999 409.2 2.68 409.2 4.99999V35C409.2 37.32 407.32 39.1999 405 39.1999H280C277.68 39.1999 275.8 37.32 275.8 35V4.99999C275.8 2.68 277.68 0.799999 280 0.799999H405ZM405 0H280C277.25 0 275 2.25 275 4.99999V35C275 37.75 277.25 39.9999 280 39.9999H405C407.75 39.9999 410 37.75 410 35V4.99999C410 2.25 407.75 0 405 0Z" fill="#A6A6A6"/>
<path d="M322.42 10.2399C322.42 11.0799 322.17 11.7499 321.67 12.2399C321.11 12.8299 320.37 13.1299 319.47 13.1299C318.6 13.1299 317.87 12.8299 317.26 12.2299C316.65 11.6299 316.35 10.8799 316.35 9.99991C316.35 9.1099 316.65 8.36989 317.26 7.76988C317.87 7.16988 318.6 6.86987 319.47 6.86987C319.9 6.86987 320.31 6.94987 320.7 7.11988C321.09 7.28988 321.4 7.50988 321.64 7.78988L321.11 8.31989C320.71 7.84988 320.17 7.60988 319.47 7.60988C318.84 7.60988 318.29 7.82988 317.83 8.27989C317.37 8.7199 317.14 9.2999 317.14 10.0099C317.14 10.7199 317.37 11.2999 317.83 11.7399C318.29 12.1799 318.84 12.4099 319.47 12.4099C320.14 12.4099 320.7 12.1899 321.15 11.7399C321.44 11.4499 321.61 11.0399 321.65 10.5199H319.47V9.79991H322.38C322.4 9.94991 322.42 10.0999 322.42 10.2399Z" fill="white" stroke="white" stroke-width="0.2" stroke-miterlimit="10"/>
<path d="M327.03 7.73976H324.3V9.63976H326.76V10.3598H324.3V12.2598H327.03V12.9998H323.53V6.99976H327.03V7.73976V7.73976Z" fill="white" stroke="white" stroke-width="0.2" stroke-miterlimit="10"/>
<path d="M330.28 12.9998H329.51V7.73976H327.83V6.99976H331.95V7.73976H330.27V12.9998H330.28Z" fill="white" stroke="white" stroke-width="0.2" stroke-miterlimit="10"/>
<path d="M334.94 12.9998V6.99976H335.71V12.9998H334.94Z" fill="white" stroke="white" stroke-width="0.2" stroke-miterlimit="10"/>
<path d="M339.13 12.9998H338.36V7.73976H336.68V6.99976H340.8V7.73976H339.12V12.9998H339.13Z" fill="white" stroke="white" stroke-width="0.2" stroke-miterlimit="10"/>
<path d="M348.61 12.2199C348.02 12.8299 347.29 13.1299 346.41 13.1299C345.53 13.1299 344.8 12.8299 344.21 12.2199C343.62 11.6099 343.33 10.8699 343.33 9.99991C343.33 9.1299 343.62 8.37989 344.21 7.77988C344.8 7.16988 345.53 6.86987 346.41 6.86987C347.28 6.86987 348.01 7.16988 348.61 7.77988C349.2 8.38989 349.5 9.1299 349.5 9.99991C349.49 10.8799 349.2 11.6199 348.61 12.2199ZM344.78 11.7199C345.22 12.1699 345.77 12.3899 346.41 12.3899C347.05 12.3899 347.6 12.1699 348.04 11.7199C348.48 11.2699 348.71 10.6999 348.71 9.99991C348.71 9.2999 348.49 8.7299 348.04 8.27989C347.6 7.82988 347.05 7.60988 346.41 7.60988C345.77 7.60988 345.22 7.82988 344.78 8.27989C344.34 8.7299 344.11 9.2999 344.11 9.99991C344.11 10.6999 344.34 11.2699 344.78 11.7199Z" fill="white" stroke="white" stroke-width="0.2" stroke-miterlimit="10"/>
<path d="M350.58 12.9998V6.99976H351.52L354.44 11.6698H354.47L354.44 10.5098V6.99976H355.21V12.9998H354.41L351.36 8.10976H351.33L351.36 9.26976V12.9998H350.58Z" fill="white" stroke="white" stroke-width="0.2" stroke-miterlimit="10"/>
<path d="M343.14 21.7501C340.79 21.7501 338.87 23.5401 338.87 26.0001C338.87 28.4501 340.79 30.2501 343.14 30.2501C345.49 30.2501 347.41 28.4501 347.41 26.0001C347.41 23.5401 345.49 21.7501 343.14 21.7501ZM343.14 28.5801C341.85 28.5801 340.74 27.5201 340.74 26.0001C340.74 24.4701 341.85 23.4201 343.14 23.4201C344.43 23.4201 345.54 24.4701 345.54 26.0001C345.54 27.5201 344.42 28.5801 343.14 28.5801ZM333.82 21.7501C331.47 21.7501 329.55 23.5401 329.55 26.0001C329.55 28.4501 331.47 30.2501 333.82 30.2501C336.17 30.2501 338.09 28.4501 338.09 26.0001C338.09 23.5401 336.17 21.7501 333.82 21.7501ZM333.82 28.5801C332.53 28.5801 331.42 27.5201 331.42 26.0001C331.42 24.4701 332.53 23.4201 333.82 23.4201C335.11 23.4201 336.22 24.4701 336.22 26.0001C336.22 27.5201 335.11 28.5801 333.82 28.5801ZM322.74 23.0601V24.8601H327.06C326.93 25.8701 326.59 26.6201 326.08 27.1301C325.45 27.7601 324.47 28.4501 322.75 28.4501C320.09 28.4501 318.01 26.3101 318.01 23.6501C318.01 20.9901 320.09 18.8501 322.75 18.8501C324.18 18.8501 325.23 19.4101 326 20.1401L327.27 18.8701C326.19 17.8401 324.76 17.05 322.74 17.05C319.1 17.05 316.04 20.0101 316.04 23.6601C316.04 27.3001 319.1 30.2701 322.74 30.2701C324.71 30.2701 326.19 29.6301 327.35 28.4201C328.54 27.2301 328.91 25.5501 328.91 24.2001C328.91 23.7801 328.88 23.3901 328.81 23.0701H322.74V23.0601ZM368.05 24.4601C367.7 23.5101 366.62 21.7501 364.41 21.7501C362.22 21.7501 360.4 23.4701 360.4 26.0001C360.4 28.3801 362.2 30.2501 364.62 30.2501C366.57 30.2501 367.7 29.0601 368.16 28.3701L366.71 27.4001C366.23 28.1101 365.57 28.5801 364.62 28.5801C363.67 28.5801 362.99 28.1401 362.56 27.2901L368.25 24.9401L368.05 24.4601ZM362.25 25.8801C362.2 24.2401 363.52 23.4001 364.47 23.4001C365.21 23.4001 365.84 23.7701 366.05 24.3001L362.25 25.8801ZM357.63 30.0001H359.5V17.5001H357.63V30.0001ZM354.57 22.7001H354.5C354.08 22.2001 353.28 21.7501 352.26 21.7501C350.13 21.7501 348.18 23.6201 348.18 26.0201C348.18 28.4001 350.13 30.2601 352.26 30.2601C353.27 30.2601 354.08 29.8101 354.5 29.2901H354.56V29.9001C354.56 31.5301 353.69 32.4001 352.29 32.4001C351.15 32.4001 350.44 31.5801 350.15 30.8901L348.52 31.5701C348.99 32.7001 350.23 34.0802 352.29 34.0802C354.48 34.0802 356.33 32.7901 356.33 29.6501V22.0101H354.56V22.7001H354.57ZM352.42 28.5801C351.13 28.5801 350.05 27.5001 350.05 26.0201C350.05 24.5201 351.13 23.4301 352.42 23.4301C353.69 23.4301 354.69 24.5301 354.69 26.0201C354.7 27.5001 353.7 28.5801 352.42 28.5801ZM376.81 17.5001H372.34V30.0001H374.21V25.2601H376.82C378.89 25.2601 380.92 23.7601 380.92 21.3801C380.92 19.0001 378.87 17.5001 376.81 17.5001ZM376.85 23.5201H374.2V19.2301H376.85C378.25 19.2301 379.04 20.3901 379.04 21.3701C379.04 22.3501 378.25 23.5201 376.85 23.5201ZM388.39 21.7301C387.04 21.7301 385.64 22.3301 385.06 23.6401L386.72 24.3301C387.07 23.6401 387.73 23.4101 388.42 23.4101C389.38 23.4101 390.37 23.9901 390.38 25.0201V25.1501C390.04 24.9601 389.32 24.6701 388.43 24.6701C386.64 24.6701 384.83 25.6501 384.83 27.4801C384.83 29.1501 386.29 30.2301 387.93 30.2301C389.18 30.2301 389.88 29.6701 390.31 29.0101H390.37V29.9801H392.17V25.1901C392.18 22.9701 390.52 21.7301 388.39 21.7301ZM388.16 28.5801C387.55 28.5801 386.7 28.2701 386.7 27.5201C386.7 26.5601 387.76 26.1901 388.68 26.1901C389.5 26.1901 389.89 26.3701 390.38 26.6101C390.24 27.7601 389.24 28.5801 388.16 28.5801ZM398.74 22.0001L396.6 27.4201H396.54L394.32 22.0001H392.31L395.64 29.5801L393.74 33.7901H395.69L400.82 22.0001H398.74ZM381.94 30.0001H383.81V17.5001H381.94V30.0001Z" fill="white"/>
<path d="M285.44 7.53997C285.15 7.84997 284.98 8.32997 284.98 8.93997V31.0599C284.98 31.6799 285.15 32.1599 285.44 32.4599L285.51 32.5299L297.9 20.1499V19.9999V19.8499L285.51 7.46997L285.44 7.53997Z" fill="url(#paint0_linear_53912_154)"/>
<path d="M302.03 24.2799L297.9 20.1499V19.9999V19.8499L302.03 15.72L302.12 15.77L307.01 18.55C308.41 19.3399 308.41 20.6399 307.01 21.4399L302.12 24.2199L302.03 24.2799Z" fill="url(#paint1_linear_53912_154)"/>
<path d="M302.12 24.22L297.9 20L285.44 32.46C285.9 32.95 286.66 33.01 287.52 32.52L302.12 24.22Z" fill="url(#paint2_linear_53912_154)"/>
<path d="M302.12 15.78L287.51 7.47999C286.65 6.98999 285.89 7.04999 285.43 7.53999L297.9 20L302.12 15.78Z" fill="url(#paint3_linear_53912_154)"/>
<path opacity="0.2" d="M302.03 24.1299L287.51 32.3798C286.7 32.8398 285.97 32.8098 285.51 32.3898L285.44 32.4598L285.51 32.5298C285.98 32.9498 286.7 32.9798 287.51 32.5198L302.12 24.2199L302.03 24.1299Z" fill="black"/>
<path opacity="0.12" d="M285.44 32.3201C285.15 32.0101 284.98 31.5302 284.98 30.9202V31.0702C284.98 31.6901 285.15 32.1701 285.44 32.4701L285.51 32.4001L285.44 32.3201Z" fill="black"/>
<path opacity="0.12" d="M307.01 21.3L302.02 24.1301L302.11 24.2201L307 21.44C307.7 21.04 308.05 20.52 308.05 20C308 20.47 307.65 20.94 307.01 21.3Z" fill="black"/>
<path opacity="0.25" d="M287.51 7.61994L307.01 18.7C307.64 19.06 308 19.52 308.06 20C308.06 19.48 307.71 18.95 307.01 18.56L287.51 7.47994C286.11 6.68994 284.97 7.34994 284.97 8.94994V9.09994C284.97 7.48994 286.12 6.82994 287.51 7.61994Z" fill="white"/>
<defs>
<linearGradient id="paint0_linear_53912_154" x1="296.8" y1="8.70967" x2="280.017" y2="25.4921" gradientUnits="userSpaceOnUse">
<stop stop-color="#00A0FF"/>
<stop offset="0.00657445" stop-color="#00A1FF"/>
<stop offset="0.2601" stop-color="#00BEFF"/>
<stop offset="0.5122" stop-color="#00D2FF"/>
<stop offset="0.7604" stop-color="#00DFFF"/>
<stop offset="1" stop-color="#00E3FF"/>
</linearGradient>
<linearGradient id="paint1_linear_53912_154" x1="308.834" y1="20.0013" x2="284.638" y2="20.0013" gradientUnits="userSpaceOnUse">
<stop stop-color="#FFE000"/>
<stop offset="0.4087" stop-color="#FFBD00"/>
<stop offset="0.7754" stop-color="#FFA500"/>
<stop offset="1" stop-color="#FF9C00"/>
</linearGradient>
<linearGradient id="paint2_linear_53912_154" x1="299.827" y1="22.2961" x2="277.069" y2="45.0544" gradientUnits="userSpaceOnUse">
<stop stop-color="#FF3A44"/>
<stop offset="1" stop-color="#C31162"/>
</linearGradient>
<linearGradient id="paint3_linear_53912_154" x1="282.297" y1="0.176203" x2="292.46" y2="10.3387" gradientUnits="userSpaceOnUse">
<stop stop-color="#32A071"/>
<stop offset="0.0685" stop-color="#2DA771"/>
<stop offset="0.4762" stop-color="#15CF74"/>
<stop offset="0.8009" stop-color="#06E775"/>
<stop offset="1" stop-color="#00F076"/>
</linearGradient>
</defs>
</svg>
